SplineFontDB: 3.0
FontName: WTactics Symbols
FullName: WTactics Symbols
FamilyName: WTactics Symbols
Weight: Regular
ItalicAngle: 0
UnderlinePosition: 0
UnderlineWidth: 0
Ascent: 1638
Descent: 410
InvalidEm: 0
LayerCount: 2
Layer: 0 0 "Back" 1
Layer: 1 0 "Fore" 0
XUID: [1021 127 -1658658186 11722]
OS2Version: 0
OS2_WeightWidthSlopeOnly: 0
OS2_UseTypoMetrics: 0
CreationTime: 1458552194
ModificationTime: 1458552217
PfmFamily: 17
TTFWeight: 400
TTFWidth: 5
LineGap: 184
VLineGap: 184
Panose: 2 0 5 3 0 0 0 0 0 0
OS2TypoAscent: 0
OS2TypoAOffset: 1
OS2TypoDescent: 0
OS2TypoDOffset: 1
OS2TypoLinegap: 184
OS2WinAscent: 0
OS2WinAOffset: 1
OS2WinDescent: 0
OS2WinDOffset: 1
HheadAscent: 0
HheadAOffset: 1
HheadDescent: 0
HheadDOffset: 1
OS2Vendor: 'PfEd'
DEI: 91125
Encoding: Original
UnicodeInterp: none
NameList: AGL For New Fonts
DisplaySize: -48
AntiAlias: 1
FitToEm: 0
WinInfo: 0 31 11
BeginChars: 28 28

StartChar: .notdef
Encoding: 0 0 0
Width: 1800
Flags: H
LayerCount: 2
Fore
SplineSet
123 1000 m 2
 1578 1000 l 2
 1646 1000 1701 945 1701 877 c 2
 1701 123 l 2
 1701 55 1646 0 1578 0 c 2
 123 0 l 2
 55 0 0 55 0 123 c 2
 0 877 l 2
 0 945 55 1000 123 1000 c 2
EndSplineSet
Validated: 1
EndChar

StartChar: zero
Encoding: 1 48 1
Width: 1800
Flags: H
LayerCount: 2
Fore
SplineSet
123 1000 m 1
 55 1000 0 945 0 877 c 2
 0 123 l 2
 0 55 55 0 123 0 c 2
 1578 0 l 2
 1646 0 1701 55 1701 123 c 2
 1701 877 l 2
 1701 945 1646 1000 1578 1000 c 2
 123 1000 l 1
867 958 m 0
 1012 958 1126 919 1207 841 c 0
 1289 763 1329 654 1329 516 c 0
 1329 378 1289 269 1207 191 c 0
 1126 113 1012 73 867 73 c 0
 722 73 607 113 525 191 c 0
 443 269 403 378 403 516 c 0
 403 654 443 763 525 841 c 0
 607 919 722 958 867 958 c 0
867 766 m 0
 807 766 762 744 730 701 c 0
 699 658 683 597 683 516 c 0
 683 435 699 373 730 330 c 0
 762 287 807 266 867 266 c 0
 926 266 971 287 1002 330 c 0
 1033 373 1049 435 1049 516 c 0
 1049 597 1033 658 1002 701 c 0
 971 744 926 766 867 766 c 0
EndSplineSet
Validated: 9
EndChar

StartChar: one
Encoding: 2 49 2
Width: 1800
Flags: H
LayerCount: 2
Fore
SplineSet
125 1000 m 1
 57 1000 0 943 0 875 c 2
 0 122 l 2
 0 54 57 0 125 0 c 2
 1580 0 l 2
 1648 0 1702 54 1702 122 c 2
 1702 875 l 2
 1702 943 1648 1000 1580 1000 c 2
 125 1000 l 1
871 941 m 1
 1004 941 l 1
 1004 55 l 1
 816 55 l 1
 816 694 l 1
 790 677 761 661 729 647 c 0
 697 633 665 622 635 612 c 1
 580 757 l 1
 605 767 629 779 655 792 c 0
 682 806 707 820 733 835 c 0
 759 851 785 869 808 886 c 0
 832 904 852 921 871 941 c 1
EndSplineSet
Validated: 9
EndChar

StartChar: two
Encoding: 3 50 3
Width: 1800
Flags: H
LayerCount: 2
Fore
SplineSet
133 1000 m 0
 61 1000 0 940 0 868 c 2
 0 132 l 2
 0 60 61 0 133 0 c 2
 1560 0 l 2
 1632 0 1693 60 1693 132 c 2
 1693 868 l 2
 1693 940 1632 1000 1560 1000 c 2
 133 1000 l 0
817 946 m 1
 868 946 912 940 948 928 c 0
 984 916 1014 901 1037 879 c 0
 1061 858 1078 833 1089 802 c 0
 1101 772 1107 738 1107 700 c 0
 1107 669 1100 638 1088 609 c 0
 1076 580 1060 552 1040 525 c 0
 1020 498 997 472 972 447 c 0
 947 422 923 399 899 377 c 0
 887 365 873 352 858 337 c 0
 844 323 830 309 817 294 c 0
 804 279 792 264 781 251 c 0
 771 239 765 228 763 220 c 1
 1133 220 l 1
 1133 65 l 1
 559 65 l 1
 557 74 556 86 556 100 c 2
 556 129 l 2
 556 169 563 206 575 239 c 0
 588 272 605 303 626 331 c 0
 647 360 669 387 695 412 c 0
 722 437 748 461 774 486 c 0
 794 505 812 522 829 539 c 0
 846 556 863 573 876 589 c 0
 889 606 900 622 907 638 c 0
 914 655 918 670 918 687 c 0
 918 723 908 749 887 764 c 0
 866 779 841 787 810 787 c 0
 788 787 766 782 746 775 c 0
 727 768 710 761 693 751 c 0
 677 742 664 732 652 722 c 0
 640 713 632 706 626 700 c 1
 534 829 l 1
 570 863 613 890 661 912 c 0
 710 934 762 946 817 946 c 1
 817 946 l 1
EndSplineSet
Validated: 5
EndChar

StartChar: three
Encoding: 4 51 4
Width: 1800
Flags: H
LayerCount: 2
Fore
SplineSet
133 1000 m 2
 61 1000 0 940 0 868 c 2
 0 132 l 2
 0 60 61 0 133 0 c 2
 1561 0 l 2
 1633 0 1693 60 1693 132 c 2
 1693 868 l 2
 1693 940 1633 1000 1561 1000 c 2
 133 1000 l 2
796 966 m 1
 848 966 893 960 930 947 c 0
 968 935 999 918 1024 895 c 0
 1049 873 1066 847 1078 816 c 0
 1090 786 1096 754 1096 718 c 0
 1096 683 1087 650 1067 617 c 0
 1048 585 1021 560 988 543 c 1
 1034 524 1068 496 1093 459 c 0
 1118 423 1132 379 1132 327 c 0
 1132 286 1125 248 1111 213 c 0
 1097 179 1077 150 1048 125 c 0
 1019 100 982 80 937 66 c 0
 893 52 841 46 780 46 c 0
 757 46 732 48 707 51 c 0
 682 54 657 57 633 62 c 0
 609 67 588 73 569 79 c 0
 550 85 534 90 523 95 c 1
 560 253 l 1
 582 244 609 233 643 222 c 0
 678 212 721 207 772 207 c 0
 830 207 873 218 900 240 c 0
 927 262 941 292 941 329 c 0
 941 352 936 371 926 386 c 0
 917 402 903 416 886 425 c 0
 869 435 849 442 825 445 c 0
 802 449 777 451 751 451 c 2
 678 451 l 1
 678 604 l 1
 762 604 l 2
 781 604 798 606 815 609 c 0
 833 612 848 617 862 625 c 0
 876 633 886 645 894 659 c 0
 902 673 907 691 907 712 c 0
 907 728 904 742 897 754 c 0
 890 766 881 775 870 783 c 0
 860 791 847 797 833 800 c 0
 819 804 805 806 791 806 c 0
 755 806 720 801 689 790 c 0
 658 779 630 765 605 749 c 1
 538 887 l 1
 552 895 567 905 585 914 c 0
 604 923 624 932 646 940 c 0
 668 948 691 954 716 959 c 0
 741 964 768 966 796 966 c 1
 796 966 l 1
EndSplineSet
Validated: 9
EndChar

StartChar: four
Encoding: 5 52 5
Width: 1800
Flags: H
LayerCount: 2
Fore
SplineSet
133 1000 m 1
 61 1000 0 940 0 868 c 2
 0 132 l 2
 0 60 61 0 133 0 c 2
 1561 0 l 2
 1633 0 1693 60 1693 132 c 2
 1693 868 l 2
 1693 940 1633 1000 1561 1000 c 2
 133 1000 l 1
901 946 m 1
 1081 946 l 1
 1081 417 l 1
 1175 417 l 1
 1175 262 l 1
 1081 262 l 1
 1081 65 l 1
 895 65 l 1
 895 262 l 1
 515 262 l 1
 515 400 l 1
 534 437 557 479 585 526 c 0
 613 573 644 622 678 671 c 0
 713 721 749 770 787 817 c 0
 825 864 863 908 901 946 c 1
895 714 m 0
 862 671 827 624 790 573 c 0
 753 522 721 470 696 417 c 1
 895 417 l 1
 895 714 l 0
EndSplineSet
Validated: 9
EndChar

StartChar: five
Encoding: 6 53 6
Width: 1800
Flags: H
LayerCount: 2
Fore
SplineSet
133 1000 m 2
 61 1000 0 940 0 868 c 2
 0 132 l 2
 0 60 61 0 133 0 c 2
 1561 0 l 2
 1633 0 1693 60 1693 132 c 2
 1693 868 l 2
 1693 940 1633 1000 1561 1000 c 2
 133 1000 l 2
628 946 m 1
 1105 946 l 1
 1105 787 l 1
 787 787 l 1
 785 756 783 727 781 698 c 0
 779 670 777 645 774 624 c 1
 898 616 990 586 1048 536 c 0
 1107 487 1137 418 1137 330 c 0
 1137 289 1129 252 1115 217 c 0
 1101 182 1079 152 1050 127 c 0
 1021 102 985 81 941 67 c 0
 898 53 846 46 788 46 c 0
 765 46 741 48 716 51 c 0
 691 54 667 57 643 62 c 0
 620 66 600 71 581 76 c 0
 562 81 548 86 538 91 c 1
 572 248 l 1
 593 239 621 229 656 220 c 0
 691 212 733 207 781 207 c 0
 839 207 882 218 908 241 c 0
 934 265 947 293 947 324 c 0
 947 349 942 370 931 389 c 0
 920 408 901 424 874 437 c 0
 847 450 810 460 764 467 c 0
 718 474 660 477 591 477 c 1
 600 556 608 636 614 717 c 0
 620 798 625 875 628 946 c 1
 628 946 l 1
EndSplineSet
Validated: 5
EndChar

StartChar: six
Encoding: 7 54 7
Width: 1800
Flags: H
LayerCount: 2
Fore
SplineSet
133 1000 m 0
 61 1000 0 940 0 868 c 2
 0 132 l 2
 0 60 61 0 133 0 c 2
 1561 0 l 2
 1633 0 1693 60 1693 132 c 2
 1693 868 l 2
 1693 940 1633 1000 1561 1000 c 2
 133 1000 l 0
1099 952 m 1
 1101 926 1102 900 1104 875 c 0
 1106 850 1107 824 1109 797 c 1
 1066 796 1025 792 987 784 c 0
 950 777 915 766 884 751 c 0
 853 736 827 716 804 691 c 0
 781 667 763 639 750 604 c 1
 769 612 789 619 808 622 c 0
 827 625 845 627 862 627 c 0
 917 627 964 619 1002 604 c 0
 1041 590 1072 569 1097 544 c 0
 1122 519 1140 489 1151 455 c 0
 1162 421 1167 385 1167 347 c 0
 1167 313 1161 279 1148 243 c 0
 1136 207 1117 175 1092 146 c 0
 1067 117 1036 94 997 75 c 0
 959 56 914 47 861 47 c 0
 755 47 674 80 619 147 c 0
 564 214 537 307 537 425 c 0
 537 510 550 585 576 650 c 0
 602 715 640 770 688 814 c 0
 737 859 796 892 865 915 c 0
 934 939 1013 951 1099 952 c 2
 1099 952 l 1
838 479 m 2
 819 479 799 477 778 474 c 0
 757 471 741 466 729 460 c 0
 729 457 728 452 727 445 c 2
 727 427 l 2
 727 396 730 368 734 341 c 0
 738 314 745 290 755 270 c 0
 765 250 779 233 796 221 c 0
 813 210 835 205 860 205 c 0
 881 205 899 209 913 217 c 0
 928 226 941 238 950 252 c 0
 960 266 967 280 971 296 c 0
 976 313 979 329 979 344 c 0
 979 387 968 421 946 444 c 0
 925 468 889 479 838 479 c 2
 838 479 l 2
EndSplineSet
Validated: 5
EndChar

StartChar: seven
Encoding: 8 55 8
Width: 1800
Flags: H
LayerCount: 2
Fore
SplineSet
133 1000 m 2
 61 1000 0 940 0 868 c 2
 0 132 l 2
 0 60 61 0 133 0 c 2
 1561 0 l 2
 1633 0 1693 60 1693 132 c 2
 1693 868 l 2
 1693 940 1633 1000 1561 1000 c 2
 133 1000 l 2
544 947 m 1
 1161 947 l 1
 1161 810 l 1
 1134 780 1104 739 1071 686 c 0
 1039 633 1008 574 978 507 c 0
 949 441 923 370 901 294 c 0
 880 218 867 141 862 65 c 1
 670 65 l 1
 675 127 686 191 702 258 c 0
 718 325 737 391 760 455 c 0
 784 519 810 580 839 637 c 0
 868 695 897 744 927 786 c 1
 544 786 l 1
 544 947 l 1
EndSplineSet
Validated: 9
EndChar

StartChar: eight
Encoding: 9 56 9
Width: 1800
Flags: H
LayerCount: 2
Fore
SplineSet
132 1000 m 0
 60 1000 0 940 0 868 c 2
 0 133 l 2
 0 61 60 0 132 0 c 2
 1560 0 l 2
 1632 0 1693 61 1693 133 c 2
 1693 868 l 2
 1693 940 1632 1000 1560 1000 c 2
 132 1000 l 0
850 966 m 0
 902 966 946 958 982 943 c 0
 1019 929 1050 910 1074 887 c 0
 1098 864 1115 839 1125 810 c 0
 1136 782 1141 754 1141 726 c 0
 1141 685 1130 648 1108 612 c 0
 1087 577 1060 549 1028 529 c 1
 1076 498 1111 465 1131 430 c 0
 1152 396 1163 356 1163 310 c 0
 1163 272 1157 237 1143 205 c 0
 1130 174 1110 146 1084 122 c 0
 1058 98 1025 80 985 66 c 0
 946 53 901 47 849 47 c 0
 790 47 740 55 700 71 c 0
 661 88 630 109 605 134 c 0
 581 159 564 185 554 214 c 0
 544 244 539 270 539 295 c 0
 539 320 542 344 549 365 c 0
 556 386 565 405 577 422 c 0
 589 440 602 456 616 470 c 0
 631 484 648 498 665 511 c 1
 629 541 602 570 584 599 c 0
 567 628 558 664 558 709 c 0
 558 743 564 776 578 807 c 0
 592 838 613 866 638 889 c 0
 663 913 694 930 730 944 c 0
 766 958 806 966 850 966 c 0
850 813 m 1
 831 813 816 811 802 805 c 0
 788 799 777 791 768 781 c 0
 760 772 753 761 749 750 c 0
 745 739 742 728 742 718 c 0
 742 691 751 666 771 642 c 0
 791 618 826 598 874 581 c 1
 901 598 923 617 937 639 c 0
 951 661 958 689 958 721 c 0
 958 730 956 740 952 750 c 0
 949 761 942 772 933 781 c 0
 925 790 914 798 900 804 c 0
 886 811 869 813 850 813 c 1
 850 813 l 1
807 450 m 1
 783 432 763 412 747 388 c 0
 731 364 723 336 723 303 c 0
 723 293 726 281 730 268 c 0
 735 256 743 245 753 235 c 0
 763 225 776 217 792 210 c 0
 808 203 827 200 850 200 c 0
 894 200 927 210 947 231 c 0
 967 252 978 277 978 303 c 0
 978 322 972 340 963 355 c 0
 955 370 943 383 928 394 c 0
 913 406 894 417 873 425 c 0
 853 434 831 442 807 450 c 1
 807 450 l 1
EndSplineSet
Validated: 5
EndChar

StartChar: nine
Encoding: 10 57 10
Width: 1800
Flags: H
LayerCount: 2
Fore
SplineSet
123 1000 m 1
 55 1000 0 945 0 877 c 2
 0 123 l 2
 0 55 55 0 123 0 c 2
 1578 0 l 2
 1646 0 1701 55 1701 123 c 2
 1701 877 l 2
 1701 945 1646 1000 1578 1000 c 2
 123 1000 l 1
840 943 m 1
 951 943 1037 905 1098 830 c 0
 1159 755 1190 649 1190 512 c 0
 1190 371 1154 260 1083 179 c 0
 1012 99 914 58 790 58 c 0
 750 58 712 61 675 67 c 0
 638 73 602 82 567 94 c 1
 567 251 l 1
 602 235 636 222 668 214 c 0
 700 206 732 202 763 202 c 0
 829 202 879 220 916 256 c 0
 953 293 975 347 981 419 c 1
 955 400 927 386 898 376 c 0
 869 366 836 362 802 362 c 0
 715 362 645 387 591 438 c 0
 538 489 511 556 511 639 c 0
 511 731 541 805 600 860 c 0
 660 915 740 943 840 943 c 1
 840 943 l 1
839 805 m 0
 800 805 771 792 752 767 c 0
 733 742 723 705 723 655 c 0
 723 605 733 567 752 542 c 0
 771 517 800 505 839 505 c 0
 878 505 907 517 926 542 c 0
 945 567 955 605 955 655 c 0
 955 705 945 742 926 767 c 0
 907 792 878 805 839 805 c 0
EndSplineSet
Validated: 9
EndChar

StartChar: A
Encoding: 11 65 11
Width: 1800
Flags: H
LayerCount: 2
Fore
SplineSet
122 1000 m 0
 54 1000 0 946 0 878 c 2
 0 122 l 2
 0 54 54 0 122 0 c 2
 1576 0 l 2
 1644 0 1702 54 1702 122 c 2
 1702 878 l 2
 1702 946 1644 1000 1576 1000 c 2
 122 1000 l 0
765 906 m 1
 937 906 l 1
 963 850 990 792 1016 733 c 0
 1042 675 1068 610 1094 545 c 0
 1120 480 1146 411 1173 337 c 0
 1200 263 1229 181 1259 94 c 1
 1063 94 l 1
 1054 122 1046 150 1035 180 c 0
 1025 210 1014 241 1004 271 c 1
 690 271 l 1
 680 241 670 210 659 180 c 0
 649 150 640 122 631 94 c 1
 439 94 l 1
 469 181 498 263 525 337 c 0
 552 411 582 480 608 545 c 0
 634 610 657 675 682 733 c 0
 708 792 738 850 765 906 c 1
847 722 m 1
 843 710 835 695 827 675 c 0
 819 655 810 630 800 604 c 0
 790 578 781 546 769 514 c 0
 757 482 745 451 733 416 c 1
 961 416 l 1
 949 451 937 482 925 514 c 0
 913 546 901 578 890 604 c 0
 880 630 875 655 867 675 c 0
 859 695 852 710 847 722 c 1
EndSplineSet
Validated: 9
EndChar

StartChar: M
Encoding: 12 77 12
Width: 1800
Flags: H
LayerCount: 2
Fore
SplineSet
366 999 m 1
 275 998 184 1001 93 996 c 1
 4 981 -4 886 1 813 c 1
 3 573 -1 333 4 93 c 1
 19 4 114 -4 187 1 c 1
 650 1 1113 1 1576 1 c 0
 1675 -1 1700 102 1691 181 c 1
 1689 423 1694 665 1689 907 c 1
 1674 996 1578 1004 1505 999 c 1
 1385 999 1351 999 1231 999 c 1
 1475 755 1201 575 1005 469 c 1
 1006 441 l 1
 1160 350 l 1
 1156 299 l 1
 522 106 l 1
 497 137 l 1
 787 714 l 1
 846 711 l 1
 897 538 l 1
 925 537 l 1
 1014 655 1120 841 946 930 c 0
 820 996 504 995 366 999 c 1
 366 999 l 1
EndSplineSet
Validated: 37
EndChar

StartChar: T
Encoding: 13 84 13
Width: 1800
Flags: H
LayerCount: 2
Fore
SplineSet
123 1000 m 1
 55 1000 0 945 0 877 c 2
 0 123 l 2
 0 55 55 0 123 0 c 2
 1578 0 l 2
 1646 0 1701 55 1701 123 c 2
 1701 877 l 2
 1701 945 1646 1000 1578 1000 c 2
 123 1000 l 1
425 919 m 1
 1244 919 l 1
 1244 751 l 1
 954 751 l 1
 954 49 l 1
 715 49 l 1
 715 751 l 1
 425 751 l 1
 425 919 l 1
EndSplineSet
Validated: 9
EndChar

StartChar: X
Encoding: 14 88 14
Width: 1800
Flags: H
LayerCount: 2
Fore
SplineSet
123 1000 m 1
 55 1000 0 945 0 877 c 2
 0 123 l 2
 0 55 55 0 123 0 c 2
 1578 0 l 2
 1646 0 1701 55 1701 123 c 2
 1701 877 l 2
 1701 945 1646 1000 1578 1000 c 2
 123 1000 l 1
429 951 m 1
 688 951 l 1
 869 680 l 1
 1056 951 l 1
 1304 951 l 1
 1000 528 l 1
 1309 81 l 1
 1049 81 l 1
 862 367 l 1
 671 81 l 1
 423 81 l 1
 732 519 l 1
 429 951 l 1
EndSplineSet
Validated: 9
EndChar

StartChar: b
Encoding: 15 98 15
Width: 1000
Flags: HW
LayerCount: 2
Fore
SplineSet
488 1000 m 0
 219 1000 0 776 0 500 c 0
 0 224 219 0 488 0 c 0
 757 0 977 224 977 500 c 0
 977 776 757 1000 488 1000 c 0
469 945 m 1
 602 945 l 1
 602 62 l 1
 410 62 l 1
 410 695 l 1
 385 678 355 662 324 648 c 0
 293 634 264 623 234 613 c 1
 176 762 l 1
 201 772 228 784 254 797 c 0
 281 811 307 825 332 840 c 0
 357 856 379 870 402 887 c 0
 426 905 450 925 469 945 c 1
EndSplineSet
Validated: 9
EndChar

StartChar: c
Encoding: 16 99 16
Width: 1000
Flags: HW
LayerCount: 2
Fore
SplineSet
488 1000 m 2
 219 1000 0 776 0 500 c 0
 0 335 78 189 199 98 c 1
 199 102 199 104 199 109 c 2
 199 141 l 2
 199 181 207 217 219 250 c 0
 232 283 249 312 270 340 c 0
 291 369 314 397 340 422 c 0
 367 447 392 471 418 496 c 0
 438 515 456 534 473 551 c 0
 490 568 507 582 520 598 c 0
 533 615 544 632 551 648 c 0
 558 665 562 682 562 699 c 0
 562 735 552 758 531 773 c 0
 510 788 484 797 453 797 c 0
 431 797 411 793 391 785 c 0
 372 778 353 772 336 762 c 0
 320 753 305 740 293 730 c 0
 281 721 276 717 270 711 c 1
 176 840 l 1
 212 874 257 900 305 922 c 0
 354 944 405 957 461 957 c 0
 512 957 554 950 590 938 c 0
 626 926 657 913 680 891 c 0
 704 870 719 843 730 812 c 0
 742 782 750 749 750 711 c 0
 750 679 742 646 730 617 c 0
 718 588 704 562 684 535 c 0
 664 508 642 482 617 457 c 0
 592 432 567 409 543 387 c 0
 531 375 515 363 500 348 c 0
 486 334 474 320 461 305 c 0
 448 290 437 275 426 262 c 0
 416 250 408 238 406 230 c 1
 777 230 l 1
 777 98 l 1
 898 189 977 335 977 500 c 0
 977 776 757 1000 488 1000 c 2
 488 1000 l 2
777 98 m 1
 766 90 754 81 742 74 c 1
 777 74 l 1
 777 98 l 1
742 74 m 1
 234 74 l 1
 308 28 395 0 488 0 c 0
 581 0 668 28 742 74 c 1
234 74 m 1
 222 82 210 90 199 98 c 1
 199 90 202 80 203 74 c 1
 234 74 l 1
 234 74 l 1
EndSplineSet
Validated: 5
EndChar

StartChar: d
Encoding: 17 100 17
Width: 1000
Flags: HW
LayerCount: 2
Fore
SplineSet
488 1000 m 0
 219 1000 0 776 0 500 c 0
 0 224 219 0 488 0 c 0
 757 0 977 224 977 500 c 0
 977 776 757 1000 488 1000 c 0
481 945 m 1
 531 945 573 938 609 926 c 0
 646 915 675 897 699 875 c 0
 723 854 739 830 750 801 c 0
 761 773 770 741 770 707 c 0
 770 674 757 641 738 609 c 0
 719 578 696 555 664 539 c 1
 708 521 742 493 766 457 c 0
 790 422 801 382 801 332 c 0
 801 293 794 256 781 223 c 0
 768 191 751 161 723 137 c 0
 695 113 660 96 617 82 c 0
 575 69 523 62 465 62 c 0
 443 62 419 63 395 66 c 0
 371 68 347 73 324 78 c 0
 301 83 281 88 262 94 c 0
 243 100 230 104 219 109 c 1
 254 262 l 1
 275 253 304 241 336 230 c 0
 369 220 408 219 457 219 c 0
 513 219 556 229 582 250 c 0
 608 271 621 300 621 336 c 0
 621 358 616 376 606 391 c 0
 597 406 582 417 566 426 c 0
 550 436 531 442 508 445 c 0
 486 449 463 453 438 453 c 2
 367 453 l 1
 367 598 l 1
 449 598 l 2
 467 598 484 599 500 602 c 0
 517 605 530 610 543 617 c 0
 556 625 567 635 574 648 c 0
 582 662 586 683 586 703 c 0
 586 718 584 731 578 742 c 0
 572 753 562 763 551 770 c 0
 541 777 530 782 516 785 c 0
 503 789 491 793 477 793 c 0
 442 793 409 788 379 777 c 0
 350 766 321 753 297 738 c 1
 235 871 l 1
 248 879 261 886 278 895 c 0
 296 904 315 911 336 918 c 0
 357 925 378 932 402 937 c 0
 426 942 454 945 481 945 c 2
 481 945 l 1
EndSplineSet
Validated: 9
EndChar

StartChar: e
Encoding: 18 101 18
Width: 1000
Flags: HW
LayerCount: 2
Fore
SplineSet
488 1000 m 0
 219 1000 0 776 0 500 c 0
 0 224 219 0 488 0 c 0
 757 0 977 224 977 500 c 0
 977 776 757 1000 488 1000 c 0
481 938 m 1
 660 938 l 1
 660 410 l 1
 754 410 l 1
 754 254 l 1
 660 254 l 1
 660 55 l 1
 473 55 l 1
 473 254 l 1
 94 254 l 1
 94 391 l 1
 113 428 136 473 164 520 c 0
 192 568 224 615 258 664 c 0
 293 714 329 761 367 809 c 0
 405 857 443 900 481 938 c 1
473 707 m 1
 440 664 404 617 367 566 c 0
 330 515 299 463 274 410 c 1
 473 410 l 1
 473 707 l 1
EndSplineSet
Validated: 9
EndChar

StartChar: f
Encoding: 19 102 19
Width: 1000
Flags: HW
LayerCount: 2
Fore
SplineSet
488 1000 m 2
 219 1000 0 776 0 500 c 0
 0 335 78 189 199 98 c 1
 230 242 l 1
 251 233 282 224 316 215 c 0
 350 207 390 203 437 203 c 0
 494 203 536 216 562 238 c 0
 588 261 602 285 602 316 c 0
 602 340 593 365 582 383 c 0
 571 402 554 418 527 430 c 0
 500 442 467 450 422 457 c 0
 377 464 318 469 250 469 c 1
 259 546 267 623 273 703 c 0
 279 783 282 856 285 926 c 1
 742 926 l 1
 668 972 581 1000 488 1000 c 2
 488 1000 l 2
742 926 m 2
 746 924 750 921 754 918 c 1
 754 926 l 1
 742 926 l 2
754 918 m 1
 754 770 l 1
 441 770 l 1
 439 740 440 712 438 684 c 0
 436 657 432 634 430 613 c 1
 551 605 642 576 699 527 c 0
 757 479 785 410 785 324 c 0
 785 284 780 249 766 215 c 0
 752 181 727 150 699 125 c 0
 671 100 637 80 594 66 c 0
 552 52 502 43 445 43 c 0
 423 43 396 48 371 51 c 0
 347 53 324 58 301 63 c 0
 279 67 260 69 242 74 c 0
 234 76 230 80 223 82 c 1
 299 31 390 0 488 0 c 0
 757 0 977 224 977 500 c 0
 977 676 888 829 754 918 c 1
 754 918 l 1
199 98 m 1
 199 90 l 2
 203 88 211 88 215 86 c 1
 210 90 204 94 199 98 c 1
EndSplineSet
Validated: 5
EndChar

StartChar: g
Encoding: 20 103 20
Width: 1000
Flags: HW
LayerCount: 2
Fore
SplineSet
488 1000 m 2
 219 1000 0 776 0 500 c 0
 0 224 219 0 488 0 c 0
 757 0 977 224 977 500 c 0
 977 689 874 853 723 938 c 1
 724 915 726 889 727 867 c 0
 729 843 728 819 730 793 c 1
 688 792 650 788 613 781 c 0
 577 774 543 761 512 746 c 0
 482 731 456 715 434 691 c 0
 412 668 395 639 383 605 c 1
 401 613 418 618 437 621 c 0
 456 624 475 625 492 625 c 0
 546 625 592 620 629 605 c 0
 667 591 695 572 719 547 c 0
 743 522 762 494 773 461 c 0
 784 428 789 392 789 355 c 0
 789 322 782 289 770 254 c 0
 758 219 740 188 715 160 c 0
 691 132 659 108 621 90 c 0
 584 72 539 62 488 62 c 0
 385 62 308 95 254 160 c 0
 200 225 176 315 176 430 c 0
 176 513 185 584 211 648 c 0
 237 712 273 766 320 809 c 0
 368 853 425 884 492 906 c 0
 556 928 632 943 711 945 c 1
 645 980 568 1000 488 1000 c 2
 488 1000 l 2
711 945 m 1
 715 943 719 940 723 938 c 1
 723 941 723 942 723 945 c 0
 719 945 715 945 711 945 c 1
469 484 m 0
 451 484 431 480 410 477 c 0
 389 474 371 471 359 465 c 0
 359 462 360 456 359 449 c 2
 359 434 l 2
 359 404 363 374 367 348 c 0
 371 322 377 297 387 277 c 0
 397 257 409 242 426 230 c 0
 443 219 463 215 488 215 c 0
 509 215 525 219 539 227 c 0
 554 236 569 249 578 262 c 0
 588 275 594 289 598 305 c 0
 603 322 605 337 605 352 c 0
 605 394 595 427 574 449 c 0
 553 472 519 484 469 484 c 0
EndSplineSet
Validated: 5
EndChar

StartChar: h
Encoding: 21 104 21
Width: 1000
Flags: HW
LayerCount: 2
Fore
SplineSet
488 1000 m 0
 383 1000 287 964 207 906 c 1
 770 906 l 1
 690 964 593 1000 488 1000 c 0
770 906 m 1
 787 894 801 881 816 867 c 1
 816 906 l 1
 770 906 l 1
816 867 m 1
 816 770 l 1
 789 740 760 698 727 645 c 0
 695 592 663 536 633 469 c 0
 604 403 581 330 559 254 c 0
 538 178 525 99 520 23 c 1
 352 23 l 1
 396 10 440 0 488 0 c 0
 757 0 977 224 977 500 c 0
 977 645 913 776 816 867 c 1
352 23 m 2
 344 25 336 28 328 31 c 1
 328 29 328 25 328 23 c 2
 352 23 l 2
328 31 m 1
 333 91 344 155 359 219 c 0
 375 286 395 350 418 414 c 0
 442 478 467 541 496 598 c 0
 525 656 552 704 582 746 c 1
 199 746 l 1
 199 902 l 1
 78 811 0 665 0 500 c 0
 0 282 137 99 328 31 c 1
199 902 m 2
 201 904 205 904 207 906 c 2
 199 906 l 1
 199 902 l 2
EndSplineSet
Validated: 5
EndChar

StartChar: i
Encoding: 22 105 22
Width: 1000
Flags: HW
LayerCount: 2
Fore
SplineSet
488 1000 m 0
 219 1000 0 776 0 500 c 0
 0 224 219 0 488 0 c 0
 757 0 977 224 977 500 c 0
 977 776 757 1000 488 1000 c 0
492 941 m 2
 542 941 582 933 617 918 c 0
 653 904 684 889 707 867 c 0
 730 845 744 821 754 793 c 0
 765 766 769 738 769 711 c 0
 769 672 759 636 738 602 c 0
 718 569 691 543 660 523 c 1
 706 493 742 459 762 426 c 0
 782 393 789 356 789 312 c 0
 789 275 782 242 769 211 c 0
 757 181 740 156 715 133 c 0
 690 110 659 91 621 78 c 0
 584 66 538 59 488 59 c 0
 431 59 386 67 348 82 c 0
 311 98 278 117 254 141 c 0
 231 165 217 191 207 219 c 0
 197 247 191 273 191 297 c 0
 191 321 197 343 203 363 c 0
 209 383 219 402 230 418 c 0
 241 435 252 451 266 465 c 0
 281 479 296 492 312 504 c 1
 277 532 251 562 234 590 c 0
 218 618 211 652 211 695 c 0
 211 728 217 759 230 789 c 0
 244 819 265 845 289 867 c 0
 313 890 341 909 375 922 c 0
 410 936 450 941 492 941 c 2
 492 941 l 2
492 797 m 2
 474 797 458 791 445 785 c 0
 432 779 419 772 410 762 c 0
 402 753 398 745 394 734 c 0
 390 723 387 713 387 703 c 0
 387 677 395 652 414 629 c 0
 434 606 470 586 516 570 c 1
 542 586 560 608 574 629 c 0
 588 650 594 676 594 707 c 0
 594 716 594 724 590 734 c 0
 587 745 579 753 570 762 c 0
 562 771 552 779 539 785 c 0
 526 792 511 797 492 797 c 2
 492 797 l 2
449 445 m 1
 426 428 406 410 391 387 c 0
 376 364 367 337 367 305 c 0
 367 295 371 285 375 273 c 0
 380 262 388 248 398 238 c 0
 408 228 418 222 433 215 c 0
 448 208 470 207 492 207 c 0
 534 207 562 218 582 238 c 0
 602 258 613 280 613 305 c 0
 613 324 607 340 598 355 c 0
 590 370 581 384 566 395 c 0
 551 406 532 414 512 422 c 0
 492 431 472 438 449 445 c 1
 449 445 l 1
EndSplineSet
Validated: 5
EndChar

StartChar: j
Encoding: 23 106 23
Width: 1000
Flags: HW
LayerCount: 2
Fore
SplineSet
488 1000 m 0
 219 1000 0 776 0 500 c 0
 0 224 219 0 488 0 c 0
 757 0 977 224 977 500 c 0
 977 776 757 1000 488 1000 c 0
492 953 m 0
 603 953 689 919 750 844 c 0
 811 769 844 660 844 523 c 0
 844 382 805 272 734 191 c 0
 663 111 569 74 445 74 c 0
 405 74 364 76 328 82 c 0
 292 88 258 97 223 109 c 1
 223 266 l 1
 258 250 288 238 320 230 c 0
 352 222 387 215 418 215 c 0
 483 215 534 234 570 270 c 0
 606 306 627 363 633 434 c 1
 607 415 580 401 551 391 c 0
 522 381 491 375 457 375 c 0
 370 375 300 402 246 453 c 0
 193 504 164 569 164 652 c 0
 164 744 195 816 254 871 c 0
 314 926 392 953 492 953 c 0
492 816 m 0
 454 816 425 802 406 777 c 0
 387 752 379 717 379 668 c 0
 379 618 387 580 406 555 c 0
 425 530 454 520 492 520 c 0
 530 520 559 530 578 555 c 0
 597 580 609 618 609 668 c 0
 609 717 597 752 578 777 c 0
 559 802 530 816 492 816 c 0
EndSplineSet
Validated: 9
EndChar

StartChar: k
Encoding: 24 107 24
Width: 1000
Flags: HW
LayerCount: 2
Fore
SplineSet
488 1000 m 0
 219 1000 0 776 0 500 c 0
 0 224 219 0 488 0 c 0
 757 0 977 224 977 500 c 0
 977 776 757 1000 488 1000 c 0
488 934 m 0
 632 934 747 894 828 816 c 0
 909 738 949 630 949 492 c 0
 949 354 909 250 828 172 c 0
 747 94 632 55 488 55 c 0
 343 55 230 94 148 172 c 0
 67 250 27 354 27 492 c 0
 27 630 67 738 148 816 c 0
 230 894 343 934 488 934 c 0
488 742 m 0
 429 742 384 723 352 680 c 0
 321 638 305 572 305 492 c 0
 305 412 321 352 352 309 c 0
 384 267 429 246 488 246 c 0
 546 246 594 267 625 309 c 0
 656 352 672 412 672 492 c 0
 672 572 656 638 625 680 c 0
 594 723 546 742 488 742 c 0
EndSplineSet
Validated: 9
EndChar

StartChar: m
Encoding: 25 109 25
Width: 1000
Flags: HW
LayerCount: 2
Fore
SplineSet
822 1000 m 1
 1096 726 789 525 569 407 c 1
 571 375 l 1
 743 273 l 1
 739 216 l 1
 29 0 l 1
 0 35 l 1
 326 681 l 1
 391 677 l 1
 449 484 l 1
 479 482 l 1
 578 615 699 823 504 923 c 0
 363 997 338 986 294 998 c 1
 822 1000 l 1
EndSplineSet
Validated: 33
EndChar

StartChar: t
Encoding: 26 116 26
Width: 1000
Flags: HW
LayerCount: 2
Fore
SplineSet
488 1000 m 0
 349 1000 226 943 137 848 c 1
 840 848 l 1
 751 943 627 1000 488 1000 c 0
125 832 m 1
 49 744 0 627 0 500 c 0
 0 224 219 0 488 0 c 0
 757 0 977 224 977 500 c 0
 977 625 929 740 855 828 c 1
 855 688 l 1
 590 688 l 1
 590 20 l 1
 391 20 l 1
 391 688 l 1
 125 688 l 1
 125 832 l 1
EndSplineSet
Validated: 9
EndChar

StartChar: x
Encoding: 27 120 27
Width: 1000
Flags: HW
LayerCount: 2
Fore
SplineSet
488 1000 m 0
 387 1000 293 968 215 914 c 1
 336 914 l 1
 496 656 l 1
 652 914 l 1
 762 914 l 1
 684 968 589 1000 488 1000 c 0
148 859 m 0
 57 768 0 640 0 500 c 0
 0 365 56 246 141 156 c 1
 166 199 189 243 219 289 c 0
 266 360 318 436 375 516 c 1
 148 859 l 0
828 855 m 1
 602 512 l 1
 669 425 728 347 773 273 c 0
 801 227 819 193 840 156 c 1
 924 246 977 366 977 500 c 0
 977 639 918 764 828 855 c 1
484 371 m 1
 473 357 459 338 441 313 c 0
 424 288 408 259 391 230 c 0
 374 201 359 174 344 148 c 0
 329 122 316 101 309 86 c 1
 215 86 l 1
 293 32 387 0 488 0 c 0
 589 0 684 32 762 86 c 1
 656 86 l 1
 633 132 606 180 578 227 c 0
 551 275 520 322 484 371 c 1
EndSplineSet
Validated: 9
EndChar
